<svg width="204" height="59" viewBox="0 0 204 59" fill="none" xmlns="http://www.w3.org/2000/svg">
<path d="M52 16.8267C54.2091 16.8267 56 18.6175 56 20.8267V33.8267C56 36.0358 54.2091 37.8267 52 37.8267H35.4209C34.1917 39.1817 31.4323 42.1722 31.0107 42.1733C30.624 42.1733 29.6393 39.1818 29.2129 37.8267H28C25.7909 37.8267 24 36.0358 24 33.8267V20.8267C24 18.6175 25.7909 16.8267 28 16.8267H52Z" fill="#2F445E"/>
<path d="M56 20.8267H56.5H56ZM35.4209 37.8267V37.3267H35.1994L35.0506 37.4907L35.4209 37.8267ZM31.0107 42.1733V42.6733L31.0121 42.6733L31.0107 42.1733ZM29.2129 37.8267L29.6898 37.6766L29.5797 37.3267H29.2129V37.8267ZM24 33.8267H23.5H24ZM52 16.8267V17.3267C53.933 17.3267 55.5 18.8937 55.5 20.8267H56H56.5C56.5 18.3414 54.4853 16.3267 52 16.3267V16.8267ZM56 20.8267H55.5V33.8267H56H56.5V20.8267H56ZM56 33.8267H55.5C55.5 35.7597 53.933 37.3267 52 37.3267V37.8267V38.3267C54.4853 38.3267 56.5 36.3119 56.5 33.8267H56ZM52 37.8267V37.3267H35.4209V37.8267V38.3267H52V37.8267ZM35.4209 37.8267L35.0506 37.4907C34.437 38.1671 33.4449 39.2479 32.5553 40.1583C32.1096 40.6144 31.696 41.0212 31.3714 41.3116C31.208 41.4578 31.0765 41.5661 30.98 41.6351C30.9312 41.67 30.9018 41.6873 30.8889 41.6939C30.8605 41.7084 30.9128 41.6736 31.0094 41.6733L31.0107 42.1733L31.0121 42.6733C31.1613 42.6729 31.2846 42.6147 31.3436 42.5845C31.418 42.5465 31.4923 42.4982 31.5617 42.4485C31.7016 42.3484 31.8644 42.2123 32.0382 42.0569C32.388 41.7439 32.8201 41.3182 33.2706 40.8572C34.1734 39.9332 35.1756 38.8413 35.7912 38.1626L35.4209 37.8267ZM31.0107 42.1733V41.6733C31.1457 41.6733 31.2266 41.7355 31.2387 41.7449C31.2567 41.759 31.2557 41.7626 31.2367 41.7378C31.1996 41.6896 31.1441 41.5992 31.0723 41.4581C30.9314 41.181 30.7663 40.7849 30.5942 40.3309C30.2516 39.4275 29.9023 38.3519 29.6898 37.6766L29.2129 37.8267L28.7359 37.9767C28.9498 38.6565 29.3061 39.7543 29.6592 40.6854C29.8348 41.1488 30.0151 41.5852 30.1809 41.9114C30.2626 42.0719 30.3507 42.2259 30.4432 42.3465C30.489 42.4061 30.5491 42.4754 30.6243 42.5339C30.6935 42.5878 30.8275 42.6733 31.0107 42.6733V42.1733ZM29.2129 37.8267V37.3267H28V37.8267V38.3267H29.2129V37.8267ZM28 37.8267V37.3267C26.067 37.3267 24.5 35.7597 24.5 33.8267H24H23.5C23.5 36.3119 25.5147 38.3267 28 38.3267V37.8267ZM24 33.8267H24.5V20.8267H24H23.5V33.8267H24ZM24 20.8267H24.5C24.5 18.8937 26.067 17.3267 28 17.3267V16.8267V16.3267C25.5147 16.3267 23.5 18.3414 23.5 20.8267H24ZM28 16.8267V17.3267H52V16.8267V16.3267H28V16.8267Z" fill="#2ABAFE"/>
<path d="M30.5 21.3267C30.7166 21.3267 30.9086 21.4664 30.9756 21.6724L31.4248 23.0542H32.8779C33.0944 23.0543 33.2866 23.194 33.3535 23.3999C33.4202 23.6057 33.3468 23.8312 33.1719 23.9585L31.9951 24.812L32.4453 26.1948C32.5121 26.4006 32.4386 26.6261 32.2637 26.7534C32.0884 26.8807 31.851 26.8807 31.6758 26.7534L30.5 25.8989L29.3242 26.7534C29.149 26.8807 28.9116 26.8807 28.7363 26.7534C28.5614 26.6261 28.4879 26.4006 28.5547 26.1948L29.0039 24.812L27.8281 23.9585C27.6532 23.8312 27.5798 23.6057 27.6465 23.3999C27.7134 23.194 27.9056 23.0543 28.1221 23.0542H29.5752L30.0244 21.6724C30.0914 21.4664 30.2834 21.3267 30.5 21.3267Z" fill="#2F445E" stroke="#C0E6F8" stroke-linejoin="round"/>
<path d="M39.5 21.3267C39.7166 21.3267 39.9086 21.4664 39.9756 21.6724L40.4248 23.0542H41.8779C42.0944 23.0543 42.2866 23.194 42.3535 23.3999C42.4202 23.6057 42.3468 23.8312 42.1719 23.9585L40.9951 24.812L41.4453 26.1948C41.5121 26.4006 41.4386 26.6261 41.2637 26.7534C41.0884 26.8807 40.851 26.8807 40.6758 26.7534L39.5 25.8989L38.3242 26.7534C38.149 26.8807 37.9116 26.8807 37.7363 26.7534C37.5614 26.6261 37.4879 26.4006 37.5547 26.1948L38.0039 24.812L36.8281 23.9585C36.6532 23.8312 36.5798 23.6057 36.6465 23.3999C36.7134 23.194 36.9056 23.0543 37.1221 23.0542H38.5752L39.0244 21.6724C39.0914 21.4664 39.2834 21.3267 39.5 21.3267Z" fill="#2F445E" stroke="#C0E6F8" stroke-linejoin="round"/>
<path d="M48.5 21.3267C48.7166 21.3267 48.9086 21.4664 48.9756 21.6724L49.4248 23.0542H50.8779C51.0944 23.0543 51.2866 23.194 51.3535 23.3999C51.4202 23.6057 51.3468 23.8312 51.1719 23.9585L49.9951 24.812L50.4453 26.1948C50.5121 26.4006 50.4386 26.6261 50.2637 26.7534C50.0884 26.8807 49.851 26.8807 49.6758 26.7534L48.5 25.8989L47.3242 26.7534C47.149 26.8807 46.9116 26.8807 46.7363 26.7534C46.5614 26.6261 46.4879 26.4006 46.5547 26.1948L47.0039 24.812L45.8281 23.9585C45.6532 23.8312 45.5798 23.6057 45.6465 23.3999C45.7134 23.194 45.9056 23.0543 46.1221 23.0542H47.5752L48.0244 21.6724C48.0914 21.4664 48.2834 21.3267 48.5 21.3267Z" fill="#2F445E" stroke="#C0E6F8" stroke-linejoin="round"/>
<line x1="32.5" y1="30.3267" x2="46.5" y2="30.3267" stroke="#C0E6F8" stroke-linecap="round"/>
<line x1="34.5" y1="32.3267" x2="44.5" y2="32.3267" stroke="#C0E6F8" stroke-linecap="round"/>
<path d="M66.864 29L60.24 11.456H63.504L67.344 21.56C67.728 22.616 68.064 23.648 68.448 25.064C68.88 23.528 69.24 22.448 69.576 21.56L73.368 11.456H76.56L70.032 29H66.864ZM76.0851 23.048C76.0851 19.352 78.7491 16.808 82.4211 16.808C86.0931 16.808 88.7571 19.352 88.7571 23.048C88.7571 26.744 86.0931 29.288 82.4211 29.288C78.7491 29.288 76.0851 26.744 76.0851 23.048ZM79.0131 23.048C79.0131 25.208 80.4051 26.672 82.4211 26.672C84.4371 26.672 85.8291 25.208 85.8291 23.048C85.8291 20.888 84.4371 19.424 82.4211 19.424C80.4051 19.424 79.0131 20.888 79.0131 23.048ZM100.369 29H90.7933V26.6L96.6973 19.592H90.7933V17.144H100.369V19.568L94.3693 26.552H100.369V29ZM112.134 29H108.942L115.278 11.456H118.422L124.758 29H121.518L120.102 24.944H113.55L112.134 29ZM116.454 16.688L114.462 22.352H119.214L117.198 16.688C117.054 16.232 116.886 15.704 116.838 15.344C116.766 15.68 116.622 16.208 116.454 16.688ZM125.771 23.048C125.771 19.376 128.195 16.784 131.699 16.784C134.939 16.784 137.147 18.584 137.459 21.44H134.531C134.195 20.096 133.211 19.4 131.819 19.4C129.947 19.4 128.699 20.816 128.699 23.048C128.699 25.28 129.851 26.672 131.723 26.672C133.187 26.672 134.219 25.952 134.531 24.656H137.483C137.123 27.416 134.819 29.312 131.723 29.312C128.123 29.312 125.771 26.816 125.771 23.048ZM144.174 29H141.246V19.592H138.966V17.144H141.246V13.448H144.174V17.144H146.478V19.592H144.174V29ZM150.242 14.768C149.234 14.768 148.442 13.976 148.442 12.992C148.442 12.008 149.234 11.24 150.242 11.24C151.202 11.24 151.994 12.008 151.994 12.992C151.994 13.976 151.202 14.768 150.242 14.768ZM148.778 29V17.144H151.706V29H148.778ZM158.571 29L153.867 17.144H156.987L159.051 22.592C159.555 24.008 159.963 25.232 160.107 25.88C160.275 25.136 160.707 23.888 161.211 22.592L163.371 17.144H166.395L161.451 29H158.571ZM171.501 29.312C168.981 29.312 167.445 27.848 167.445 25.616C167.445 23.432 169.029 22.064 171.837 21.848L175.389 21.584V21.32C175.389 19.712 174.429 19.064 172.941 19.064C171.213 19.064 170.253 19.784 170.253 21.032H167.757C167.757 18.464 169.869 16.784 173.085 16.784C176.277 16.784 178.245 18.512 178.245 21.8V29H175.677L175.461 27.248C174.957 28.472 173.349 29.312 171.501 29.312ZM172.461 27.104C174.261 27.104 175.413 26.024 175.413 24.2V23.576L172.941 23.768C171.117 23.936 170.421 24.536 170.421 25.496C170.421 26.576 171.141 27.104 172.461 27.104Z" fill="#EFF5FB"/>
<g opacity="0.7">
<path d="M65.061 51.21C64.0577 51.21 63.2107 50.9883 62.52 50.545C61.8293 50.097 61.3067 49.4787 60.952 48.69C60.5973 47.9013 60.42 46.9913 60.42 45.96C60.42 44.9287 60.5973 44.0187 60.952 43.23C61.3067 42.4413 61.8293 41.8253 62.52 41.382C63.2107 40.934 64.0577 40.71 65.061 40.71C66.2323 40.71 67.189 41.011 67.931 41.613C68.673 42.2103 69.1817 43.013 69.457 44.021L68.407 44.294C68.1923 43.496 67.8073 42.8637 67.252 42.397C66.6967 41.9303 65.9663 41.697 65.061 41.697C64.2723 41.697 63.6167 41.8767 63.094 42.236C62.5713 42.5953 62.177 43.097 61.911 43.741C61.6497 44.3803 61.5143 45.12 61.505 45.96C61.5003 46.8 61.6287 47.5397 61.89 48.179C62.156 48.8183 62.5527 49.32 63.08 49.684C63.612 50.0433 64.2723 50.223 65.061 50.223C65.9663 50.223 66.6967 49.9897 67.252 49.523C67.8073 49.0517 68.1923 48.4193 68.407 47.626L69.457 47.899C69.1817 48.907 68.673 49.712 67.931 50.314C67.189 50.9113 66.2323 51.21 65.061 51.21ZM71.0015 51V40.92H71.9465L75.9085 49.397L79.8495 40.92H80.8085V50.993H79.8285V43.216L76.2375 51H75.5725L71.9885 43.216V51H71.0015ZM86.273 51.21C85.5683 51.21 84.9336 51.0933 84.369 50.86C83.809 50.622 83.3446 50.286 82.976 49.852C82.612 49.418 82.374 48.9023 82.262 48.305L83.312 48.13C83.48 48.7833 83.8346 49.2967 84.376 49.67C84.9173 50.0387 85.5636 50.223 86.315 50.223C86.8096 50.223 87.253 50.146 87.645 49.992C88.037 49.8333 88.345 49.6093 88.569 49.32C88.793 49.0307 88.905 48.6877 88.905 48.291C88.905 48.0297 88.8583 47.808 88.765 47.626C88.6716 47.4393 88.548 47.2853 88.394 47.164C88.24 47.0427 88.072 46.9423 87.89 46.863C87.708 46.779 87.5306 46.7113 87.358 46.66L84.803 45.897C84.495 45.8083 84.2103 45.6963 83.949 45.561C83.6876 45.421 83.459 45.2553 83.263 45.064C83.0716 44.868 82.9223 44.6393 82.815 44.378C82.7076 44.1167 82.654 43.818 82.654 43.482C82.654 42.9127 82.8033 42.4203 83.102 42.005C83.4006 41.5897 83.809 41.27 84.327 41.046C84.845 40.822 85.4353 40.7123 86.098 40.717C86.77 40.717 87.3696 40.836 87.897 41.074C88.429 41.312 88.8676 41.6527 89.213 42.096C89.5583 42.5347 89.787 43.055 89.899 43.657L88.821 43.853C88.751 43.4143 88.59 43.034 88.338 42.712C88.086 42.39 87.764 42.1427 87.372 41.97C86.9846 41.7927 86.5576 41.7017 86.091 41.697C85.6383 41.697 85.2346 41.774 84.88 41.928C84.53 42.0773 84.2523 42.2827 84.047 42.544C83.8416 42.8053 83.739 43.104 83.739 43.44C83.739 43.7807 83.8323 44.0537 84.019 44.259C84.2103 44.4643 84.4436 44.6253 84.719 44.742C84.999 44.8587 85.2696 44.9543 85.531 45.029L87.505 45.61C87.7103 45.666 87.9506 45.7477 88.226 45.855C88.506 45.9577 88.7766 46.107 89.038 46.303C89.304 46.4943 89.5233 46.7463 89.696 47.059C89.8686 47.3717 89.955 47.7683 89.955 48.249C89.955 48.7157 89.8616 49.1333 89.675 49.502C89.493 49.8707 89.234 50.181 88.898 50.433C88.5666 50.685 88.177 50.8763 87.729 51.007C87.2856 51.1423 86.8003 51.21 86.273 51.21ZM99.6864 51V41.907H96.1654V40.92H104.236V41.907H100.715V51H99.6864ZM107.437 51.21C106.699 51.21 106.06 51.0467 105.519 50.72C104.982 50.3933 104.564 49.9337 104.266 49.341C103.967 48.7483 103.818 48.053 103.818 47.255C103.818 46.429 103.965 45.715 104.259 45.113C104.553 44.511 104.966 44.0467 105.498 43.72C106.034 43.3933 106.667 43.23 107.395 43.23C108.141 43.23 108.778 43.4027 109.306 43.748C109.833 44.0887 110.232 44.5787 110.503 45.218C110.773 45.8573 110.897 46.6203 110.874 47.507H109.824V47.143C109.805 46.163 109.593 45.4233 109.187 44.924C108.785 44.4247 108.197 44.175 107.423 44.175C106.611 44.175 105.988 44.4387 105.554 44.966C105.124 45.4933 104.91 46.2447 104.91 47.22C104.91 48.172 105.124 48.9117 105.554 49.439C105.988 49.9617 106.601 50.223 107.395 50.223C107.936 50.223 108.407 50.0993 108.809 49.852C109.215 49.6 109.534 49.2383 109.768 48.767L110.727 49.138C110.428 49.796 109.987 50.307 109.404 50.671C108.825 51.0303 108.169 51.21 107.437 51.21ZM104.546 47.507V46.646H110.321V47.507H104.546ZM115.248 51.203C114.362 51.203 113.631 51.0117 113.057 50.629C112.488 50.2463 112.138 49.7143 112.007 49.033L113.057 48.858C113.169 49.2873 113.424 49.6303 113.82 49.887C114.222 50.139 114.716 50.265 115.304 50.265C115.878 50.265 116.331 50.146 116.662 49.908C116.994 49.6653 117.159 49.3363 117.159 48.921C117.159 48.6877 117.106 48.4987 116.998 48.354C116.896 48.2047 116.683 48.067 116.361 47.941C116.039 47.815 115.559 47.6657 114.919 47.493C114.233 47.3063 113.697 47.1197 113.309 46.933C112.922 46.7463 112.647 46.5317 112.483 46.289C112.32 46.0417 112.238 45.7407 112.238 45.386C112.238 44.9567 112.36 44.581 112.602 44.259C112.845 43.9323 113.181 43.6803 113.61 43.503C114.04 43.321 114.539 43.23 115.108 43.23C115.678 43.23 116.186 43.3233 116.634 43.51C117.087 43.692 117.451 43.9487 117.726 44.28C118.002 44.6113 118.165 44.9963 118.216 45.435L117.166 45.624C117.096 45.1807 116.875 44.8307 116.501 44.574C116.133 44.3127 115.664 44.1773 115.094 44.168C114.558 44.154 114.121 44.2567 113.785 44.476C113.449 44.6907 113.281 44.9777 113.281 45.337C113.281 45.5377 113.342 45.7103 113.463 45.855C113.585 45.995 113.804 46.128 114.121 46.254C114.443 46.38 114.901 46.5177 115.493 46.667C116.189 46.8443 116.735 47.031 117.131 47.227C117.528 47.423 117.81 47.654 117.978 47.92C118.146 48.186 118.23 48.515 118.23 48.907C118.23 49.621 117.964 50.1833 117.432 50.594C116.905 51 116.177 51.203 115.248 51.203ZM123.899 51C123.474 51.0887 123.054 51.1237 122.639 51.105C122.228 51.0863 121.859 50.9977 121.533 50.839C121.211 50.6803 120.966 50.433 120.798 50.097C120.662 49.817 120.588 49.5347 120.574 49.25C120.564 48.9607 120.56 48.6317 120.56 48.263V41.34H121.582V48.221C121.582 48.5383 121.584 48.8043 121.589 49.019C121.598 49.229 121.647 49.4157 121.736 49.579C121.904 49.8917 122.17 50.0783 122.534 50.139C122.902 50.1997 123.357 50.1857 123.899 50.097V51ZM118.943 44.322V43.44H123.899V44.322H118.943ZM125.528 42.005V40.85H126.557V42.005H125.528ZM125.528 51V43.44H126.557V51H125.528ZM137.672 51L137.679 46.037C137.679 45.4537 137.515 44.9963 137.189 44.665C136.867 44.329 136.456 44.161 135.957 44.161C135.672 44.161 135.394 44.2263 135.124 44.357C134.853 44.4877 134.629 44.6977 134.452 44.987C134.279 45.2763 134.193 45.6543 134.193 46.121L133.584 45.946C133.57 45.4047 133.675 44.931 133.899 44.525C134.127 44.119 134.44 43.804 134.837 43.58C135.238 43.3513 135.691 43.237 136.195 43.237C136.955 43.237 137.564 43.4727 138.022 43.944C138.479 44.4107 138.708 45.043 138.708 45.841L138.701 51H137.672ZM128.649 51V43.44H129.573V45.302H129.685V51H128.649ZM133.171 51L133.178 46.107C133.178 45.505 133.017 45.0313 132.695 44.686C132.377 44.336 131.957 44.161 131.435 44.161C130.912 44.161 130.49 44.3407 130.168 44.7C129.846 45.0547 129.685 45.5283 129.685 46.121L129.069 45.785C129.069 45.2997 129.183 44.8657 129.412 44.483C129.64 44.0957 129.953 43.7923 130.35 43.573C130.746 43.349 131.197 43.237 131.701 43.237C132.181 43.237 132.608 43.3397 132.982 43.545C133.36 43.7503 133.656 44.049 133.871 44.441C134.085 44.833 134.193 45.309 134.193 45.869L134.186 51H133.171ZM143.625 51.21C142.874 51.21 142.232 51.0397 141.7 50.699C141.168 50.3583 140.76 49.887 140.475 49.285C140.191 48.683 140.048 47.9923 140.048 47.213C140.048 46.4197 140.193 45.7243 140.482 45.127C140.772 44.5297 141.182 44.0653 141.714 43.734C142.251 43.398 142.888 43.23 143.625 43.23C144.381 43.23 145.025 43.4003 145.557 43.741C146.094 44.077 146.502 44.546 146.782 45.148C147.067 45.7453 147.209 46.4337 147.209 47.213C147.209 48.0063 147.067 48.704 146.782 49.306C146.498 49.9033 146.087 50.37 145.55 50.706C145.014 51.042 144.372 51.21 143.625 51.21ZM143.625 50.223C144.465 50.223 145.091 49.9453 145.501 49.39C145.912 48.83 146.117 48.1043 146.117 47.213C146.117 46.2983 145.91 45.5703 145.494 45.029C145.084 44.4877 144.461 44.217 143.625 44.217C143.061 44.217 142.594 44.3453 142.225 44.602C141.861 44.854 141.588 45.2063 141.406 45.659C141.229 46.107 141.14 46.625 141.14 47.213C141.14 48.123 141.35 48.8533 141.77 49.404C142.19 49.95 142.809 50.223 143.625 50.223ZM154.213 51V47.143C154.213 46.723 154.174 46.338 154.094 45.988C154.015 45.6333 153.887 45.3253 153.709 45.064C153.537 44.798 153.31 44.5927 153.03 44.448C152.755 44.3033 152.419 44.231 152.022 44.231C151.658 44.231 151.336 44.294 151.056 44.42C150.781 44.546 150.548 44.728 150.356 44.966C150.17 45.1993 150.027 45.484 149.929 45.82C149.831 46.156 149.782 46.5387 149.782 46.968L149.054 46.807C149.054 46.0323 149.19 45.3813 149.46 44.854C149.731 44.3267 150.104 43.9277 150.58 43.657C151.056 43.3863 151.602 43.251 152.218 43.251C152.671 43.251 153.065 43.321 153.401 43.461C153.742 43.601 154.029 43.79 154.262 44.028C154.5 44.266 154.692 44.539 154.836 44.847C154.981 45.1503 155.086 45.4747 155.151 45.82C155.217 46.1607 155.249 46.5013 155.249 46.842V51H154.213ZM148.746 51V43.44H149.677V45.302H149.782V51H148.746ZM157.206 42.005V40.85H158.235V42.005H157.206ZM157.206 51V43.44H158.235V51H157.206ZM162.497 51.21C161.927 51.21 161.449 51.1073 161.062 50.902C160.679 50.6967 160.392 50.4237 160.201 50.083C160.009 49.7423 159.914 49.3713 159.914 48.97C159.914 48.5593 159.995 48.2093 160.159 47.92C160.327 47.626 160.553 47.3857 160.838 47.199C161.127 47.0123 161.461 46.87 161.839 46.772C162.221 46.6787 162.644 46.597 163.106 46.527C163.572 46.4523 164.027 46.3893 164.471 46.338C164.919 46.282 165.311 46.2283 165.647 46.177L165.283 46.401C165.297 45.6543 165.152 45.1013 164.849 44.742C164.545 44.3827 164.018 44.203 163.267 44.203C162.749 44.203 162.31 44.3197 161.951 44.553C161.596 44.7863 161.346 45.155 161.202 45.659L160.201 45.365C160.373 44.6883 160.721 44.1633 161.244 43.79C161.766 43.4167 162.445 43.23 163.281 43.23C163.971 43.23 164.557 43.3607 165.038 43.622C165.523 43.8787 165.866 44.252 166.067 44.742C166.16 44.9613 166.221 45.2063 166.249 45.477C166.277 45.7477 166.291 46.023 166.291 46.303V51H165.374V49.103L165.64 49.215C165.383 49.8637 164.984 50.3583 164.443 50.699C163.901 51.0397 163.253 51.21 162.497 51.21ZM162.616 50.321C163.096 50.321 163.516 50.2347 163.876 50.062C164.235 49.8893 164.524 49.6537 164.744 49.355C164.963 49.0517 165.105 48.711 165.171 48.333C165.227 48.0903 165.257 47.8243 165.262 47.535C165.266 47.241 165.269 47.0217 165.269 46.877L165.661 47.08C165.311 47.1267 164.93 47.1733 164.52 47.22C164.114 47.2667 163.712 47.3203 163.316 47.381C162.924 47.4417 162.569 47.514 162.252 47.598C162.037 47.6587 161.829 47.745 161.629 47.857C161.428 47.9643 161.262 48.109 161.132 48.291C161.006 48.473 160.943 48.6993 160.943 48.97C160.943 49.1893 160.996 49.4017 161.104 49.607C161.216 49.8123 161.393 49.9827 161.636 50.118C161.883 50.2533 162.21 50.321 162.616 50.321ZM168.253 51V40.71H169.282V51H168.253Z" fill="#EFF5FB"/>
</g>
</svg>
